<svg xmlns="http://www.w3.org/2000/svg" width="25" height="25" viewBox="0 0 25 25">
  <path id="bxs-help-circle" d="M15.5,3A12.5,12.5,0,1,0,28,15.5,12.514,12.514,0,0,0,15.5,3Zm1.25,20h-2.5V20.5h2.5Zm1.22-6.106a8.5,8.5,0,0,0-.668.574,1.708,1.708,0,0,0-.551.992v.167h-2.5v-.209A4.076,4.076,0,0,1,15.533,15.7a11.288,11.288,0,0,1,.863-.748c.917-.743,1.52-1.286,1.52-2.034a2.418,2.418,0,0,0-4.833,0h-2.5a4.917,4.917,0,1,1,9.834,0c0,2-1.473,3.188-2.448,3.976Z" transform="translate(-3 -3)" fill="#0098d3"/>
</svg>
