<svg xmlns="http://www.w3.org/2000/svg" width="70.1" height="27.6" viewBox="0 0 70.1 27.6">
  <g id="Group_38439" data-name="Group 38439" transform="translate(-3687.2 111.8)">
    <path id="Path_29843" data-name="Path 29843" d="M103.806,126.563,99.2,124.358l-4.606,2.206L95.7,121.8l-3.5-3.476,4.974-.705L99.2,113.3l2.026,4.32,4.974.705-3.5,3.476Z" transform="translate(3650.8 -224.8)" fill="#f8a200" stroke="#fff" stroke-linecap="round" stroke-linejoin="round" stroke-width="0.6"/>
    <path id="Path_29842" data-name="Path 29842" d="M107.95,132.8l-6.25-3.243L95.45,132.8l1.5-7-4.75-5.111,6.75-1.037,2.75-6.351,2.75,6.351,6.75,1.037-4.75,5.111Z" transform="translate(3636.3 -224.8)" fill="#f8a200" stroke="#fff" stroke-linecap="round" stroke-linejoin="round" stroke-width="0.6"/>
    <path id="Path_29845" data-name="Path 29845" d="M94.594,126.563l4.606-2.206,4.606,2.206L102.7,121.8l3.5-3.476-4.974-.705L99.2,113.3l-2.026,4.32-4.974.705,3.5,3.476Z" transform="translate(3595.3 -224.8)" fill="#f8a200" stroke="#fff" stroke-linecap="round" stroke-linejoin="round" stroke-width="0.6"/>
    <path id="Path_29846" data-name="Path 29846" d="M95.45,132.8l6.25-3.243,6.25,3.243-1.5-7,4.75-5.111-6.75-1.037L101.7,113.3l-2.75,6.351-6.75,1.037,4.75,5.111Z" transform="translate(3604.8 -224.8)" fill="#f8a200" stroke="#fff" stroke-linecap="round" stroke-linejoin="round" stroke-width="0.6"/>
    <path id="Path_237" data-name="Path 237" d="M112.924,139.3l-8.224-4.324L96.476,139.3l1.974-9.335L92.2,123.15l8.882-1.382L104.7,113.3l3.618,8.468,8.882,1.382-6.25,6.815Z" transform="translate(3617.8 -223.8)" fill="#f8a200" stroke="#fff" stroke-linecap="round" stroke-linejoin="round" stroke-width="0.6"/>
  </g>
</svg>
